<svg height="503pt" viewBox="0 0 503 503" width="503pt" xmlns="http://www.w3.org/2000/svg">
  <path d="M416.367 134.297l-293.77 293.77h338.926c18.543 0 33.575 15.03 33.575 33.574 0 18.539-15.032 33.574-33.575 33.574H42.27a33.581 33.581 0 01-30.868-20.488 33.581 33.581 0 016.782-36.422l-.422-.418L380.105 75.539H42.27C23.73 75.54 8.7 60.508 8.7 41.97c0-18.543 15.03-33.574 33.57-33.574h419.253c18.512 0 33.528 14.98 33.575 33.488v.422a33.385 33.385 0 01-12.844 26.101l-57.492 57.496-7.977 7.973v.086zm0 0" fill="#a4c2f7"/>
  <path d="M382.457 134.297l-293.77 293.77h338.926c18.543 0 33.574 15.03 33.574 33.574 0 18.539-15.03 33.574-33.574 33.574H42.27a33.581 33.581 0 01-30.868-20.488 33.581 33.581 0 016.782-36.422l-.422-.418L380.105 75.539H42.27C23.73 75.54 8.7 60.508 8.7 41.97c0-18.543 15.03-33.574 33.57-33.574h385.343c18.512 0 33.528 14.98 33.575 33.488v.422a33.38 33.38 0 01-12.84 26.101l-65.47 65.469v.086zm0 0" fill="#e3e7f2"/>
  <path d="M469.582 323.148c0 14.016-14.773 27.614-30.555 29.711h-56.402a37.157 37.157 0 01-18.719-8.308 28.616 28.616 0 01-11.832-21.403c.606-24.898 17.793-46.312 41.965-52.293h33.574c24.176 5.98 41.364 27.395 41.969 52.293zm0 0" fill="#a4c2f7"/>
  <path d="M446.414 480.441a49.888 49.888 0 01-35.586 14.774 51.827 51.827 0 01-12.59-1.598 49.384 49.384 0 01-23-13.176 49.882 49.882 0 01-12.168-46.668l16.953-73.527a36.717 36.717 0 012.602-7.387 32.106 32.106 0 0111.414-12.254h33.574a22.867 22.867 0 012.938 2.016c.758.586 1.43 1.258 2.183 1.848a32.737 32.737 0 016.293 8.39 36.73 36.73 0 012.606 7.387l16.953 73.527a49.874 49.874 0 01-12.172 46.668zm0 0" fill="#a4c2f7"/>
  <path d="M444.402 323.148a28.67 28.67 0 01-11.668 21.32 38.59 38.59 0 01-18.886 8.391h-31.223a37.157 37.157 0 01-18.719-8.308 28.616 28.616 0 01-11.832-21.403c.606-24.898 17.793-46.312 41.965-52.293h8.395c24.175 5.98 41.359 27.395 41.968 52.293zm0 0" fill="#d4e1f4"/>
  <path d="M421.234 480.441a49.371 49.371 0 01-22.996 13.176 49.384 49.384 0 01-23-13.176 49.882 49.882 0 01-12.168-46.668l16.953-73.527a36.717 36.717 0 012.602-7.387 37.157 37.157 0 01-18.719-8.308 24.394 24.394 0 014.953-3.946h33.575a22.867 22.867 0 012.937 2.016 32.36 32.36 0 018.477 10.238c1.129 2.364 2 4.84 2.601 7.387l16.957 73.527a49.884 49.884 0 01-12.172 46.668zm0 0" fill="#d4e1f4"/>
  <path d="M410.828 251.805c9.27 0 16.785 7.515 16.785 16.785v92.328c0 9.27-7.515 16.785-16.785 16.785-9.273 0-16.789-7.515-16.789-16.785V268.59c0-9.27 7.516-16.785 16.79-16.785zm0 0M427.613 444.852c0 9.273-7.515 16.789-16.785 16.789-9.273 0-16.789-7.516-16.789-16.79 0-9.269 7.516-16.785 16.79-16.785 9.269 0 16.784 7.516 16.784 16.786zm0 0" fill="#a4c2f7"/>
  <g fill="#fff">
    <path d="M67.453 8.395H42.27c-18.54 0-33.57 15.03-33.57 33.574 0 18.539 15.03 33.57 33.57 33.57h25.183c-18.543 0-33.574-15.031-33.574-33.57 0-18.543 15.031-33.574 33.574-33.574zm0 0M33.879 461.64a33.371 33.371 0 019.484-23.335l-.422-.418 23.754-43.395h-8.394l-40.54 43.395.423.418a33.354 33.354 0 00-9.485 23.336 33.534 33.534 0 0033.57 33.574h25.184A33.536 33.536 0 0133.88 461.64zm0 0"/>
    <path d="M42.27 486.82h368.558v16.785H42.27zm0 0"/>
  </g>
  <path d="M109.418 486.82a8.821 8.821 0 00-5.957 2.434l-1.008 1.258a6.3 6.3 0 00-.758 1.511c-.242.477-.41.985-.504 1.512a13.44 13.44 0 00-.168 1.68 8.833 8.833 0 002.438 5.957c.8.758 1.742 1.36 2.77 1.762a8.562 8.562 0 009.148-1.762 8.665 8.665 0 001.762-2.77 8.308 8.308 0 00-7.723-11.582zm0 0" fill="#428dff"/>
  <path d="M503.492 41.883C503.445 18.738 484.668 0 461.523 0H42.27C19.094 0 .305 18.79.305 41.969c0 23.176 18.789 41.965 41.965 41.965h41.214v16.789H66.695c-4.633 0-8.394 3.757-8.394 8.39a8.396 8.396 0 008.394 8.395h16.79v16.789h-16.79c-4.633 0-8.394 3.758-8.394 8.39a8.396 8.396 0 008.394 8.395h16.79v16.785h-16.79c-4.633 0-8.394 3.758-8.394 8.395s3.761 8.394 8.394 8.394h16.79v16.785h-16.79a8.396 8.396 0 00-8.394 8.395 8.396 8.396 0 008.394 8.394h16.79v16.786h-16.79a8.396 8.396 0 00-8.394 8.394 8.396 8.396 0 008.394 8.395h16.79v16.785h-16.79c-4.633 0-8.394 3.758-8.394 8.394s3.761 8.395 8.394 8.395h16.79v16.785h-16.79a8.396 8.396 0 00-8.394 8.395c0 4.632 3.761 8.39 8.394 8.39h16.79v41.348l-71.657 71.656c-.8.8-1.406 1.774-1.781 2.844A41.59 41.59 0 00.305 461.64a41.906 41.906 0 0041.965 41.964h33.574a8.393 8.393 0 100-16.785H42.27a25.024 25.024 0 01-17.778-7.32 25.346 25.346 0 01-7.402-17.86 24.968 24.968 0 017.11-17.484 7.415 7.415 0 001.562-2.402L386.043 81.477a8.396 8.396 0 00-5.938-14.329H42.27a25.024 25.024 0 01-17.778-7.32 25.18 25.18 0 01-5.523-27.473 25.178 25.178 0 0123.3-15.57h419.254a25.24 25.24 0 0125.18 25.45 24.932 24.932 0 01-9.617 19.558 6.658 6.658 0 00-.766.68l-359.656 359.66a8.382 8.382 0 00-1.82 9.144 8.398 8.398 0 007.754 5.184H354.12a57.992 57.992 0 0015.16 49.89c.156.165.344.31.512.47h-226.8a8.393 8.393 0 100 16.785h318.53c22.762.175 41.497-17.86 42.18-40.614.684-22.754-16.93-41.883-39.66-43.078l-14.145-61.32a41.13 41.13 0 0028.079-35.446c-.637-26.34-17.493-49.539-42.348-58.277a25.11 25.11 0 00-16.406-19.918v-35.117h16.785a8.393 8.393 0 100-16.785h-16.785v-16.79h16.785a8.393 8.393 0 100-16.785h-16.785v-16.175l.609-.613h16.176a8.351 8.351 0 00.512-16.684l51.324-51.3a41.888 41.888 0 0015.648-32.821zM100.27 343.512v-41.348h16.789a8.393 8.393 0 000-16.785h-16.79v-16.79h16.79a8.393 8.393 0 000-16.784h-16.79v-16.79h16.79a8.393 8.393 0 000-16.785h-16.79v-16.789h16.79a8.393 8.393 0 000-16.785h-16.79v-16.789h16.79a8.393 8.393 0 000-16.785h-16.79v-16.785h16.79a8.393 8.393 0 008.39-8.395 8.393 8.393 0 00-8.39-8.394h-16.79V83.934h259.575zM402.434 160.09v16.172H386.27zm-25.079 25.078c.243 4.406 3.88 7.86 8.293 7.883h16.786v16.785h-16.786a8.393 8.393 0 100 16.785h16.786v18.332a25.115 25.115 0 00-16.41 19.918c-24.852 8.738-41.712 31.938-42.344 58.277a41.128 41.128 0 0028.11 35.446l-14.083 61.078H142.832zm41.868 83.422v92.328a8.396 8.396 0 01-8.395 8.395 8.394 8.394 0 01-8.394-8.395V268.59a8.394 8.394 0 018.394-8.395 8.396 8.396 0 018.395 8.395zm-33.575 67.719a40.194 40.194 0 00-6.773 7.074 25.306 25.306 0 01-18.41-20.235 45.23 45.23 0 0125.183-39.843zm-4.476 138.199a41.728 41.728 0 01-9.93-38.848l15.578-67.539a25.014 25.014 0 0048.012 0l15.586 67.55c4.535 18.009-3.566 36.821-19.766 45.907-16.199 9.086-36.472 6.188-49.48-7.07zm105.531-13.086a25.126 25.126 0 01-25.18 25.398h-9.652c.152-.152.328-.285.48-.445a57.927 57.927 0 0015.333-49.078c11.136 2.707 18.984 12.664 19.02 24.125zm-25.516-138.274a25.304 25.304 0 01-18.464 20.235 40.862 40.862 0 00-6.715-7.125v-52.953a45.226 45.226 0 0125.18 39.843zm0 0" fill="#428dff"/>
  <path d="M410.828 419.672c-13.906 0-25.18 11.273-25.18 25.18s11.274 25.18 25.18 25.18 25.18-11.274 25.18-25.18-11.274-25.18-25.18-25.18zm0 33.574a8.393 8.393 0 110-16.785c4.633 0 8.395 3.758 8.395 8.39a8.396 8.396 0 01-8.395 8.395zm0 0" fill="#428dff"/>
</svg>
